<svg width="38" height="41" viewBox="0 0 38 41" fill="none" xmlns="http://www.w3.org/2000/svg">
<path d="M32.9333 19.8794C33.725 20.4266 34.4309 21.0472 35.051 21.7412C35.6712 22.4352 36.2056 23.196 36.6542 24.0234C37.1028 24.8509 37.4326 25.7251 37.6437 26.646C37.8549 27.5669 37.9736 28.5078 38 29.4688C38 31.057 37.7031 32.5518 37.1094 33.9531C36.5156 35.3545 35.6976 36.5757 34.6552 37.6167C33.6128 38.6577 32.4056 39.4785 31.0333 40.0791C29.6611 40.6797 28.1833 40.9867 26.6 41C25.3993 41 24.2382 40.8198 23.1167 40.4595C21.9951 40.0991 20.966 39.5786 20.0292 38.8979C19.0924 38.2173 18.2611 37.4032 17.5354 36.4556C16.8097 35.508 16.249 34.4603 15.8531 33.3125H0V2.5625H5.06667V0H7.6V2.5625H25.3333V0H27.8667V2.5625H32.9333V19.8794ZM2.53333 5.125V10.25H30.4V5.125H27.8667V7.6875H25.3333V5.125H7.6V7.6875H5.06667V5.125H2.53333ZM15.2594 30.75C15.2198 30.3363 15.2 29.9092 15.2 29.4688C15.2 28.321 15.3583 27.2065 15.675 26.1255C15.9917 25.0444 16.4733 24.0234 17.1198 23.0625H15.2V20.5H17.7333V22.2217C18.2743 21.541 18.8747 20.9404 19.5344 20.4199C20.1941 19.8994 20.9066 19.4523 21.6719 19.0786C22.4372 18.7049 23.2354 18.4246 24.0667 18.2378C24.8979 18.0509 25.7424 17.9508 26.6 17.9375C27.9194 17.9375 29.1861 18.1577 30.4 18.5981V12.8125H2.53333V30.75H15.2594ZM26.6 38.4375C27.8271 38.4375 28.975 38.2039 30.0437 37.7368C31.1125 37.2697 32.0493 36.6291 32.8542 35.8149C33.659 35.0008 34.2924 34.0532 34.7542 32.9722C35.216 31.8911 35.4535 30.7233 35.4667 29.4688C35.4667 28.2275 35.2358 27.0664 34.774 25.9854C34.3122 24.9043 33.6788 23.9567 32.874 23.1426C32.0691 22.3285 31.1323 21.6878 30.0635 21.2207C28.9948 20.7536 27.8403 20.5133 26.6 20.5C25.3729 20.5 24.225 20.7336 23.1562 21.2007C22.0875 21.6678 21.1507 22.3084 20.3458 23.1226C19.541 23.9367 18.9076 24.8843 18.4458 25.9653C17.984 27.0464 17.7465 28.2142 17.7333 29.4688C17.7333 30.71 17.9642 31.8711 18.426 32.9521C18.8878 34.0332 19.5212 34.9808 20.326 35.7949C21.1309 36.6091 22.0677 37.2497 23.1365 37.7168C24.2052 38.1839 25.3597 38.4242 26.6 38.4375ZM27.8667 28.1875H31.6667V30.75H25.3333V23.0625H27.8667V28.1875ZM5.06667 20.5H7.6V23.0625H5.06667V20.5ZM10.1333 20.5H12.6667V23.0625H10.1333V20.5ZM10.1333 15.375H12.6667V17.9375H10.1333V15.375ZM5.06667 25.625H7.6V28.1875H5.06667V25.625ZM10.1333 25.625H12.6667V28.1875H10.1333V25.625ZM17.7333 17.9375H15.2V15.375H17.7333V17.9375ZM22.8 17.9375H20.2667V15.375H22.8V17.9375ZM27.8667 17.9375H25.3333V15.375H27.8667V17.9375Z" fill="white"/>
</svg>
