<svg width="37" height="37" viewBox="0 0 37 37" fill="none" xmlns="http://www.w3.org/2000/svg">
<path d="M7.17643 9.2355H5.11762C4.02556 9.2355 2.97823 9.66932 2.20602 10.4415C1.43382 11.2137 1 12.2611 1 13.3531V31.8824C1 32.9745 1.43382 34.0218 2.20602 34.794C2.97823 35.5662 4.02556 36 5.11762 36H23.6469C24.739 36 25.7863 35.5662 26.5585 34.794C27.3307 34.0218 27.7645 32.9745 27.7645 31.8824V29.8236" stroke="white" stroke-width="2" stroke-linecap="round" stroke-linejoin="round"/>
<path d="M25.7056 5.11784L31.8821 11.2943M34.7335 8.38106C35.5444 7.5702 35.9999 6.47045 35.9999 5.32372C35.9999 4.177 35.5444 3.07724 34.7335 2.26639C33.9227 1.45553 32.8229 1 31.6762 1C30.5294 1 29.4297 1.45553 28.6188 2.26639L11.2939 19.5295V25.7059H17.4704L34.7335 8.38106Z" stroke="white" stroke-width="2" stroke-linecap="round" stroke-linejoin="round"/>
</svg>
