<svg width="39" height="33" viewBox="0 0 39 33" fill="none" xmlns="http://www.w3.org/2000/svg">
<path d="M7.38492 8.29425H5.25661C4.12769 8.29425 3.045 8.67849 2.24673 9.36244C1.44846 10.0464 1 10.974 1 11.9413V28.3529C1 29.3202 1.44846 30.2478 2.24673 30.9318C3.045 31.6157 4.12769 32 5.25661 32H24.4114C25.5403 32 26.623 31.6157 27.4212 30.9318C28.2195 30.2478 28.668 29.3202 28.668 28.3529V26.5294" stroke="black" stroke-width="2" stroke-linecap="round" stroke-linejoin="round"/>
<path d="M26.5395 4.64723L32.9244 10.1178M35.8721 7.53751C36.7104 6.81932 37.1813 5.84525 37.1813 4.82958C37.1813 3.81391 36.7104 2.83984 35.8721 2.12166C35.0339 1.40347 33.897 1 32.7116 1C31.5262 1 30.3893 1.40347 29.5511 2.12166L11.6414 17.4119V22.8824H18.0263L35.8721 7.53751Z" stroke="black" stroke-width="2" stroke-linecap="round" stroke-linejoin="round"/>
</svg>
