<svg width="39" height="38" viewBox="0 0 39 38" fill="none" xmlns="http://www.w3.org/2000/svg">
<path d="M18.375 30.0834V29.5834H17.875H11.375C10.6415 29.5834 9.94062 29.2994 9.42584 28.7978C8.91149 28.2966 8.625 27.6197 8.625 26.9167V11.0834C8.625 10.3804 8.91149 9.70347 9.42584 9.20232C9.94062 8.70073 10.6415 8.41671 11.375 8.41671H34.125C34.8585 8.41671 35.5594 8.70073 36.0742 9.20232C36.5885 9.70347 36.875 10.3804 36.875 11.0834V26.9167C36.875 27.6197 36.5885 28.2966 36.0742 28.7978C35.5594 29.2994 34.8585 29.5834 34.125 29.5834H27.4625H27.2588L27.1131 29.7257L21.1058 35.5948C20.8703 35.8108 20.586 35.9167 20.3125 35.9167H19.5C19.1975 35.9167 18.9099 35.7995 18.6999 35.5948C18.4903 35.3906 18.375 35.1164 18.375 34.8334V30.0834ZM26.3333 27.4167H34.125H34.625V26.9167V11.0834V10.5834H34.125H11.375H10.875V11.0834V26.9167V27.4167H11.375H20.625V31.7934V32.9787L21.4739 32.1515L26.3333 27.4167ZM4.375 4.75004V23.25H2.125V4.75004C2.125 4.04705 2.41149 3.37014 2.92584 2.86898C3.44062 2.3674 4.14152 2.08337 4.875 2.08337H30.375V4.25004H4.875H4.375V4.75004Z" fill="#249CC2" stroke="#249CC2"/>
</svg>
